<svg xmlns="http://www.w3.org/2000/svg" viewBox="0 0 512 512">
  <defs>
    <linearGradient id="ts-grad" x1="0%" y1="0%" x2="100%" y2="0%">
      <stop offset="0%" stop-color="#38bdf8" />
      <stop offset="100%" stop-color="#8b5cf6" />
    </linearGradient>
  </defs>
  <path d="M467.51,248.83c-18.4-83.18-45.69-136.24-89.43-149.17A91.5,91.5,0,0,0,352,96c-26.89,0-48.11,16-96,16s-69.15-16-96-16a99.09,99.09,0,0,0-27.2,3.66C89,112.59,61.94,165.7,43.33,248.83c-19,84.91-15.56,152,21.58,164.88,26,9,49.25-9.61,71.27-37,25-31.2,55.79-40.8,119.82-40.8s93.62,9.6,118.66,40.8c22,27.41,46.11,45.79,71.42,37.16C487.1,399.86,486.52,334.74,467.51,248.83Z" fill="none" stroke="url(#ts-grad)" stroke-width="32" stroke-miterlimit="10"/>
  <circle cx="292" cy="224" r="24" fill="#38bdf8"/>
  <path d="M336,288a24,24,0,1,1,24-23.95A24,24,0,0,1,336,288Z" fill="#8b5cf6"/>
  <circle cx="336" cy="180" r="24" fill="#8b5cf6"/>
  <circle cx="380" cy="224" r="24" fill="#38bdf8"/>
  <path d="M160 176 L160 272 M112 224 L208 224" stroke="url(#ts-grad)" stroke-linecap="round" stroke-linejoin="round" stroke-width="32"/>
</svg>
