<?xml version="1.0" encoding="iso-8859-1"?>
<!-- Uploaded to: SVG Repo, www.svgrepo.com, Generator: SVG Repo Mixer Tools -->
<!DOCTYPE svg PUBLIC "-//W3C//DTD SVG 1.1//EN" "http://www.w3.org/Graphics/SVG/1.1/DTD/svg11.dtd">
<svg fill="#000000" height="800px" width="800px" version="1.1" id="Capa_1" xmlns="http://www.w3.org/2000/svg" xmlns:xlink="http://www.w3.org/1999/xlink" 
	 viewBox="0 0 297 297" xml:space="preserve">
<path d="M230.039,0H66.961c-5.458,0-9.884,4.425-9.884,9.884v116.485c0,5.458,4.425,9.884,9.884,9.884h41.789l5.7,22.8
	c1.099,4.399,5.053,7.486,9.588,7.486h14.578v110.695h-39.04c-5.458,0-9.884,4.425-9.884,9.884c0,5.458,4.425,9.884,9.884,9.884
	h97.847c5.458,0,9.884-4.425,9.884-9.884c0-5.458-4.425-9.884-9.884-9.884h-39.04V166.537h14.578c4.535,0,8.489-3.087,9.588-7.486
	l5.7-22.8h41.789c5.458,0,9.884-4.425,9.884-9.884V9.884C239.923,4.425,235.497,0,230.039,0z M174.197,81.539h-51.394V49.418h51.394
	V81.539z M165.245,146.77h-33.49l-11.366-45.464h56.222L165.245,146.77z M220.156,116.485h-26.964l3.795-15.179h0.437
	c5.458,0,9.884-4.425,9.884-9.884s-4.425-9.884-9.884-9.884h-9.389v-39.04c0-3.821-3.097-6.918-6.918-6.918h-65.231
	c-3.821,0-6.918,3.097-6.918,6.918v39.04h-9.389c-5.458,0-9.884,4.425-9.884,9.884s4.425,9.884,9.884,9.884h0.437l3.795,15.179
	H76.844V19.767h143.311V116.485z"/>
</svg>